<svg width="40" height="40" viewBox="0 0 40 40" fill="none" xmlns="http://www.w3.org/2000/svg">
<path fill-rule="evenodd" clip-rule="evenodd" d="M18.3334 5H20.0001H21.6667H22.5001C22.9602 5 23.3334 5.3731 23.3334 5.83333C23.3334 6.29357 23.7066 6.66667 24.1667 6.66667H25.0001H25.8334C26.2936 6.66667 26.6667 7.03977 26.6667 7.5C26.6667 7.96023 27.0399 8.33333 27.5001 8.33333C27.9602 8.33333 28.3334 8.70643 28.3334 9.16667V10V10.8333C28.3334 11.2936 28.7066 11.6667 29.1667 11.6667C29.6269 11.6667 30.0001 12.0398 30.0001 12.5V13.3333V15V16.6667V17.5C30.0001 17.9602 30.3732 18.3333 30.8334 18.3333C31.2936 18.3333 31.6667 18.7065 31.6667 19.1667V20V21.6667V22.5C31.6667 22.9602 32.0399 23.3333 32.5001 23.3333C32.9602 23.3333 33.3334 23.7065 33.3334 24.1667V25V26.6667V27.5C33.3334 27.9602 32.9602 28.3333 32.5001 28.3333H31.6667H30.0001H28.3334H26.6667H25.0001H23.3334H21.6667H20.0001H18.3334H16.6667H15.0001H13.3334H11.6667H10.0001H8.33341H7.50008C7.03985 28.3333 6.66675 27.9602 6.66675 27.5V26.6667V25V24.1667C6.66675 23.7065 7.03985 23.3333 7.50008 23.3333C7.96031 23.3333 8.33341 22.9602 8.33341 22.5V21.6667V20V19.1667C8.33341 18.7065 8.70651 18.3333 9.16675 18.3333C9.62698 18.3333 10.0001 17.9602 10.0001 17.5V16.6667V15V13.3333V12.5C10.0001 12.0398 10.3732 11.6667 10.8334 11.6667C11.2936 11.6667 11.6667 11.2936 11.6667 10.8333V10V9.16667C11.6667 8.70643 12.0398 8.33333 12.5001 8.33333C12.9603 8.33333 13.3334 7.96023 13.3334 7.5C13.3334 7.03977 13.7065 6.66667 14.1667 6.66667H15.0001H15.8334C16.2936 6.66667 16.6667 6.29357 16.6667 5.83333C16.6667 5.3731 17.0399 5 17.5001 5H18.3334ZM13.3334 18.3333V16.6667V15V14.1667C13.3334 13.7064 13.7065 13.3333 14.1667 13.3333C14.627 13.3333 15.0001 12.9602 15.0001 12.5V11.6667V10.8333C15.0001 10.3731 15.3732 10 15.8334 10H16.6667H17.5001C17.9602 10 18.3334 9.6269 18.3334 9.16667C18.3334 8.70643 18.7066 8.33333 19.1667 8.33333H20.0001H20.8334C21.2936 8.33333 21.6667 8.70643 21.6667 9.16667C21.6667 9.6269 22.0399 10 22.5001 10H23.3334H24.1667C24.6269 10 25.0001 10.3731 25.0001 10.8333V11.6667V12.5C25.0001 12.9602 25.3732 13.3333 25.8334 13.3333C26.2936 13.3333 26.6667 13.7064 26.6667 14.1667V15V16.6667V18.3333V19.1667C26.6667 19.6268 27.0399 20 27.5001 20C27.9602 20 28.3334 20.3732 28.3334 20.8333V21.6667V23.3333V24.1667C28.3334 24.6268 27.9602 25 27.5001 25H26.6667H25.0001H23.3334H21.6667H20.0001H18.3334H16.6667H15.0001H13.3334H12.5001C12.0398 25 11.6667 24.6268 11.6667 24.1667V23.3333V21.6667V20.8333C11.6667 20.3732 12.0398 20 12.5001 20C12.9603 20 13.3334 19.6268 13.3334 19.1667V18.3333ZM23.3334 31.6667H24.1667C24.6269 31.6667 25.0001 32.0398 25.0001 32.5V33.3333V34.1667C25.0001 34.6268 24.6269 35 24.1667 35H23.3334H22.5001C22.0399 35 21.6667 35.3732 21.6667 35.8333C21.6667 36.2935 21.2936 36.6667 20.8334 36.6667H20.0001H19.1667C18.7066 36.6667 18.3334 36.2935 18.3334 35.8333C18.3334 35.3732 17.9602 35 17.5001 35H16.6667H15.8334C15.3732 35 15.0001 34.6268 15.0001 34.1667V33.3333V32.5C15.0001 32.0398 15.3732 31.6667 15.8334 31.6667H16.6667H17.5001C17.9602 31.6667 18.3334 32.0398 18.3334 32.5C18.3334 32.9602 18.7066 33.3333 19.1667 33.3333H20.0001H20.8334C21.2936 33.3333 21.6667 32.9602 21.6667 32.5C21.6667 32.0398 22.0399 31.6667 22.5001 31.6667H23.3334Z" fill="#E6E3E3"/>
</svg>
