<svg width="557" height="373" viewBox="0 0 557 373" fill="none" xmlns="http://www.w3.org/2000/svg">
<g filter="url(#filter0_dd_33_1037)">
<path d="M129.864 60V81.056L126.888 78.112H144.84V84H123.24V60H129.864ZM157.418 84.512C155.2 84.512 153.216 84.1067 151.466 83.296C149.738 82.4853 148.373 81.3547 147.37 79.904C146.368 78.432 145.866 76.7253 145.866 74.784C145.866 72.8853 146.346 71.2213 147.306 69.792C148.266 68.3413 149.578 67.2107 151.242 66.4C152.928 65.5893 154.826 65.184 156.938 65.184C159.136 65.184 161.002 65.664 162.538 66.624C164.096 67.5627 165.29 68.896 166.122 70.624C166.976 72.352 167.402 74.3893 167.402 76.736H151.146V72.8H163.722L161.578 74.176C161.493 73.2373 161.258 72.448 160.874 71.808C160.49 71.1467 159.978 70.6453 159.338 70.304C158.72 69.9627 157.973 69.792 157.098 69.792C156.138 69.792 155.317 69.984 154.634 70.368C153.952 70.752 153.418 71.2853 153.034 71.968C152.65 72.6293 152.458 73.408 152.458 74.304C152.458 75.456 152.714 76.4373 153.226 77.248C153.76 78.0373 154.528 78.6453 155.53 79.072C156.554 79.4987 157.802 79.712 159.274 79.712C160.618 79.712 161.952 79.5413 163.274 79.2C164.618 78.8373 165.834 78.336 166.922 77.696V81.856C165.664 82.7093 164.224 83.3707 162.602 83.84C161.002 84.288 159.274 84.512 157.418 84.512ZM180.692 80.896L178.452 80.864L184.788 65.728H191.764L183.22 84H175.764L167.22 65.728H174.452L180.692 80.896ZM203.2 84.512C200.981 84.512 198.997 84.1067 197.248 83.296C195.52 82.4853 194.154 81.3547 193.152 79.904C192.149 78.432 191.648 76.7253 191.648 74.784C191.648 72.8853 192.128 71.2213 193.088 69.792C194.048 68.3413 195.36 67.2107 197.024 66.4C198.709 65.5893 200.608 65.184 202.72 65.184C204.917 65.184 206.784 65.664 208.319 66.624C209.877 67.5627 211.072 68.896 211.904 70.624C212.757 72.352 213.184 74.3893 213.184 76.736H196.928V72.8H209.503L207.36 74.176C207.274 73.2373 207.04 72.448 206.656 71.808C206.272 71.1467 205.76 70.6453 205.12 70.304C204.501 69.9627 203.754 69.792 202.88 69.792C201.92 69.792 201.098 69.984 200.416 70.368C199.733 70.752 199.2 71.2853 198.816 71.968C198.432 72.6293 198.24 73.408 198.24 74.304C198.24 75.456 198.496 76.4373 199.008 77.248C199.541 78.0373 200.309 78.6453 201.312 79.072C202.336 79.4987 203.584 79.712 205.056 79.712C206.4 79.712 207.733 79.5413 209.056 79.2C210.4 78.8373 211.616 78.336 212.704 77.696V81.856C211.445 82.7093 210.005 83.3707 208.384 83.84C206.784 84.288 205.056 84.512 203.2 84.512ZM215.022 65.728H221.678L222.766 72.256V84H216.238V71.872L215.022 65.728ZM231.342 65.44V71.008C230.702 70.88 230.094 70.7947 229.518 70.752C228.963 70.688 228.451 70.656 227.982 70.656C227.043 70.656 226.179 70.848 225.39 71.232C224.6 71.5947 223.96 72.2027 223.47 73.056C223 73.9093 222.766 75.0507 222.766 76.48L221.518 74.944C221.688 73.6213 221.944 72.384 222.286 71.232C222.627 70.0587 223.086 69.024 223.662 68.128C224.259 67.2107 224.995 66.496 225.87 65.984C226.744 65.4507 227.811 65.184 229.07 65.184C229.432 65.184 229.806 65.2053 230.19 65.248C230.574 65.2907 230.958 65.3547 231.342 65.44ZM249.648 84L248.816 77.408L249.68 74.88L248.816 72.352L249.648 65.728H256.432L255.28 74.848L256.432 84H249.648ZM251.184 74.88C250.885 76.8 250.288 78.4853 249.392 79.936C248.517 81.3867 247.397 82.5173 246.032 83.328C244.688 84.1173 243.152 84.512 241.424 84.512C239.632 84.512 238.053 84.1173 236.688 83.328C235.344 82.5173 234.288 81.3867 233.52 79.936C232.752 78.464 232.368 76.7787 232.368 74.88C232.368 72.9387 232.752 71.2427 233.52 69.792C234.288 68.3413 235.344 67.2107 236.688 66.4C238.053 65.5893 239.632 65.184 241.424 65.184C243.152 65.184 244.688 65.5893 246.032 66.4C247.397 67.1893 248.528 68.3093 249.424 69.76C250.32 71.1893 250.906 72.896 251.184 74.88ZM238.992 74.88C238.992 75.776 239.173 76.576 239.536 77.28C239.92 77.984 240.442 78.5387 241.104 78.944C241.765 79.328 242.522 79.52 243.376 79.52C244.272 79.52 245.114 79.328 245.904 78.944C246.693 78.5387 247.386 77.984 247.984 77.28C248.581 76.576 249.029 75.776 249.328 74.88C249.029 73.9627 248.581 73.152 247.984 72.448C247.386 71.744 246.693 71.1893 245.904 70.784C245.114 70.3787 244.272 70.176 243.376 70.176C242.522 70.176 241.765 70.3787 241.104 70.784C240.442 71.1893 239.92 71.744 239.536 72.448C239.173 73.152 238.992 73.9627 238.992 74.88ZM275.416 79.392V76.288L275.64 75.52V71.04L275.416 70.368V65.728H281.944V79.136C281.944 81.376 281.422 83.296 280.376 84.896C279.331 86.496 277.87 87.712 275.992 88.544C274.136 89.376 271.939 89.792 269.4 89.792C267.715 89.792 266.147 89.568 264.696 89.12C263.267 88.6933 261.838 88.0533 260.408 87.2V82.272C261.731 83.2533 263.118 83.9573 264.568 84.384C266.04 84.832 267.512 85.056 268.984 85.056C271.075 85.056 272.664 84.608 273.752 83.712C274.862 82.816 275.416 81.376 275.416 79.392ZM267.576 82.08C265.848 82.08 264.312 81.728 262.968 81.024C261.624 80.32 260.558 79.3387 259.768 78.08C259 76.8 258.616 75.3173 258.616 73.632C258.616 71.9253 259 70.4427 259.768 69.184C260.558 67.9253 261.624 66.944 262.968 66.24C264.312 65.536 265.848 65.184 267.576 65.184C268.856 65.184 270.03 65.3867 271.096 65.792C272.163 66.176 273.112 66.6987 273.944 67.36C274.776 68 275.47 68.704 276.024 69.472C276.6 70.2187 277.038 70.9653 277.336 71.712C277.635 72.4587 277.784 73.12 277.784 73.696C277.784 74.4853 277.55 75.36 277.08 76.32C276.632 77.28 275.971 78.1973 275.096 79.072C274.222 79.9467 273.144 80.672 271.864 81.248C270.606 81.8027 269.176 82.08 267.576 82.08ZM269.784 77.632C271.043 77.632 272.163 77.3013 273.144 76.64C274.126 75.9787 274.958 74.976 275.64 73.632C274.936 72.2667 274.094 71.264 273.112 70.624C272.131 69.9627 271.022 69.632 269.784 69.632C268.846 69.632 268.024 69.792 267.32 70.112C266.638 70.432 266.115 70.9013 265.752 71.52C265.39 72.1173 265.208 72.8213 265.208 73.632C265.208 74.4213 265.39 75.1253 265.752 75.744C266.115 76.3413 266.638 76.8107 267.32 77.152C268.003 77.472 268.824 77.632 269.784 77.632ZM296.2 84.512C293.981 84.512 291.997 84.1067 290.248 83.296C288.52 82.4853 287.154 81.3547 286.152 79.904C285.149 78.432 284.648 76.7253 284.648 74.784C284.648 72.8853 285.128 71.2213 286.088 69.792C287.048 68.3413 288.36 67.2107 290.024 66.4C291.709 65.5893 293.608 65.184 295.72 65.184C297.917 65.184 299.784 65.664 301.319 66.624C302.877 67.5627 304.072 68.896 304.904 70.624C305.757 72.352 306.184 74.3893 306.184 76.736H289.928V72.8H302.503L300.36 74.176C300.274 73.2373 300.04 72.448 299.656 71.808C299.272 71.1467 298.76 70.6453 298.12 70.304C297.501 69.9627 296.754 69.792 295.88 69.792C294.92 69.792 294.098 69.984 293.416 70.368C292.733 70.752 292.2 71.2853 291.816 71.968C291.432 72.6293 291.24 73.408 291.24 74.304C291.24 75.456 291.496 76.4373 292.008 77.248C292.541 78.0373 293.309 78.6453 294.312 79.072C295.336 79.4987 296.584 79.712 298.056 79.712C299.4 79.712 300.733 79.5413 302.056 79.2C303.4 78.8373 304.616 78.336 305.704 77.696V81.856C304.445 82.7093 303.005 83.3707 301.384 83.84C299.784 84.288 298.056 84.512 296.2 84.512ZM129.864 98V119.056L126.888 116.112H144.84V122H123.24V98H129.864ZM163.273 122L162.441 115.408L163.305 112.88L162.441 110.352L163.273 103.728H170.057L168.905 112.848L170.057 122H163.273ZM164.809 112.88C164.51 114.8 163.913 116.485 163.017 117.936C162.142 119.387 161.022 120.517 159.657 121.328C158.313 122.117 156.777 122.512 155.049 122.512C153.257 122.512 151.678 122.117 150.313 121.328C148.969 120.517 147.913 119.387 147.145 117.936C146.377 116.464 145.993 114.779 145.993 112.88C145.993 110.939 146.377 109.243 147.145 107.792C147.913 106.341 148.969 105.211 150.313 104.4C151.678 103.589 153.257 103.184 155.049 103.184C156.777 103.184 158.313 103.589 159.657 104.4C161.022 105.189 162.153 106.309 163.049 107.76C163.945 109.189 164.531 110.896 164.809 112.88ZM152.617 112.88C152.617 113.776 152.798 114.576 153.161 115.28C153.545 115.984 154.067 116.539 154.729 116.944C155.39 117.328 156.147 117.52 157.001 117.52C157.897 117.52 158.739 117.328 159.529 116.944C160.318 116.539 161.011 115.984 161.609 115.28C162.206 114.576 162.654 113.776 162.953 112.88C162.654 111.963 162.206 111.152 161.609 110.448C161.011 109.744 160.318 109.189 159.529 108.784C158.739 108.379 157.897 108.176 157.001 108.176C156.147 108.176 155.39 108.379 154.729 108.784C154.067 109.189 153.545 109.744 153.161 110.448C152.798 111.152 152.617 111.963 152.617 112.88ZM173.198 97.36H179.758V109.04L178.894 110.704V115.312L179.758 116.912V122H173.198V97.36ZM177.646 112.88C177.945 110.896 178.532 109.189 179.406 107.76C180.281 106.309 181.401 105.189 182.766 104.4C184.153 103.589 185.7 103.184 187.406 103.184C189.198 103.184 190.766 103.589 192.11 104.4C193.476 105.211 194.532 106.341 195.278 107.792C196.046 109.243 196.43 110.939 196.43 112.88C196.43 114.779 196.046 116.464 195.278 117.936C194.532 119.387 193.476 120.517 192.11 121.328C190.766 122.117 189.198 122.512 187.406 122.512C185.678 122.512 184.132 122.117 182.766 121.328C181.401 120.517 180.281 119.387 179.406 117.936C178.532 116.485 177.945 114.8 177.646 112.88ZM189.838 112.88C189.838 111.963 189.646 111.152 189.262 110.448C188.9 109.744 188.388 109.189 187.726 108.784C187.065 108.379 186.297 108.176 185.422 108.176C184.548 108.176 183.716 108.379 182.926 108.784C182.137 109.189 181.444 109.744 180.846 110.448C180.249 111.152 179.79 111.963 179.47 112.88C179.79 113.776 180.249 114.576 180.846 115.28C181.444 115.984 182.137 116.539 182.926 116.944C183.716 117.328 184.548 117.52 185.422 117.52C186.297 117.52 187.065 117.328 187.726 116.944C188.388 116.539 188.9 115.984 189.262 115.28C189.646 114.576 189.838 113.776 189.838 112.88ZM220.445 116.048C220.445 117.456 220.018 118.64 219.165 119.6C218.311 120.56 217.095 121.285 215.517 121.776C213.938 122.267 212.039 122.512 209.821 122.512C207.538 122.512 205.533 122.235 203.805 121.68C202.098 121.125 200.765 120.347 199.805 119.344C198.845 118.341 198.333 117.179 198.269 115.856H204.893C205.042 116.347 205.33 116.773 205.757 117.136C206.205 117.477 206.791 117.744 207.517 117.936C208.242 118.107 209.106 118.192 210.109 118.192C211.41 118.192 212.391 118.064 213.053 117.808C213.735 117.552 214.077 117.168 214.077 116.656C214.077 116.251 213.821 115.952 213.309 115.76C212.797 115.547 211.922 115.387 210.685 115.28L207.453 115.024C205.298 114.875 203.581 114.555 202.301 114.064C201.042 113.552 200.135 112.901 199.581 112.112C199.026 111.301 198.749 110.384 198.749 109.36C198.749 107.973 199.175 106.832 200.029 105.936C200.903 105.019 202.109 104.336 203.645 103.888C205.202 103.419 207.015 103.184 209.085 103.184C211.133 103.184 212.957 103.451 214.557 103.984C216.157 104.517 217.437 105.264 218.397 106.224C219.357 107.163 219.911 108.272 220.061 109.552H213.437C213.33 109.147 213.095 108.784 212.733 108.464C212.37 108.123 211.869 107.845 211.229 107.632C210.589 107.419 209.767 107.312 208.765 107.312C207.591 107.312 206.695 107.44 206.077 107.696C205.479 107.952 205.181 108.315 205.181 108.784C205.181 109.147 205.362 109.435 205.725 109.648C206.109 109.861 206.813 110.011 207.837 110.096L212.093 110.416C214.205 110.544 215.869 110.853 217.085 111.344C218.301 111.813 219.165 112.443 219.677 113.232C220.189 114.021 220.445 114.96 220.445 116.048Z" fill="#CAEFF9"/>
</g>
<defs>
<filter id="filter0_dd_33_1037" x="-126.76" y="-190" width="682.944" height="562.512" filterUnits="userSpaceOnUse" color-interpolation-filters="sRGB">
<feFlood flood-opacity="0" result="BackgroundImageFix"/>
<feColorMatrix in="SourceAlpha" type="matrix" values="0 0 0 0 0 0 0 0 0 0 0 0 0 0 0 0 0 0 127 0" result="hardAlpha"/>
<feOffset/>
<feGaussianBlur stdDeviation="96.57"/>
<feComposite in2="hardAlpha" operator="out"/>
<feColorMatrix type="matrix" values="0 0 0 0 0.792157 0 0 0 0 0.937255 0 0 0 0 0.976471 0 0 0 1 0"/>
<feBlend mode="normal" in2="BackgroundImageFix" result="effect1_dropShadow_33_1037"/>
<feColorMatrix in="SourceAlpha" type="matrix" values="0 0 0 0 0 0 0 0 0 0 0 0 0 0 0 0 0 0 127 0" result="hardAlpha"/>
<feOffset/>
<feGaussianBlur stdDeviation="125"/>
<feComposite in2="hardAlpha" operator="out"/>
<feColorMatrix type="matrix" values="0 0 0 0 0.792157 0 0 0 0 0.937255 0 0 0 0 0.976471 0 0 0 1 0"/>
<feBlend mode="normal" in2="effect1_dropShadow_33_1037" result="effect2_dropShadow_33_1037"/>
<feBlend mode="normal" in="SourceGraphic" in2="effect2_dropShadow_33_1037" result="shape"/>
</filter>
</defs>
</svg>
